<svg width="64px" height="64px" viewBox="0 0 24 24" fill="none" xmlns="http://www.w3.org/2000/svg" stroke="#f97316"><g id="SVGRepo_bgCarrier" stroke-width="0"></g><g id="SVGRepo_tracerCarrier" stroke-linecap="round" stroke-linejoin="round"></g><g id="SVGRepo_iconCarrier"> <path d="M9 14C7.89543 14 7 13.1046 7 12C7 10.8954 7.89543 10 9 10C10.1046 10 11 10.8954 11 12C11 13.1046 10.1046 14 9 14Z" stroke="#f97316" stroke-width="1.5" stroke-linecap="round" stroke-linejoin="round"></path> <path d="M15 14C13.8954 14 13 13.1046 13 12C13 10.8954 13.8954 10 15 10C16.1046 10 17 10.8954 17 12C17 13.1046 16.1046 14 15 14Z" stroke="#f97316" stroke-width="1.5" stroke-linecap="round" stroke-linejoin="round"></path> <path d="M12 22C17.5228 22 22 17.5228 22 12C22 6.47715 17.5228 2 12 2C6.47715 2 2 6.47715 2 12C2 13.8214 2.48697 15.5291 3.33782 17L2.5 21.5L7 20.6622C8.47087 21.513 10.1786 22 12 22Z" stroke="#f97316" stroke-width="1.5" stroke-linecap="round" stroke-linejoin="round"></path> </g></svg>