<svg width="400px" height="400px" viewBox="0 0 1024 1024" xmlns="http://www.w3.org/2000/svg" fill="#000000"><g id="SVGRepo_bgCarrier" stroke-width="0"></g><g id="SVGRepo_tracerCarrier" stroke-linecap="round" stroke-linejoin="round"></g><g id="SVGRepo_iconCarrier"><path fill="#22292f" d="M512 64a448 448 0 1 1 0 896 448 448 0 0 1 0-896zm0 832a384 384 0 0 0 0-768 384 384 0 0 0 0 768z"></path><path fill="#22292f" d="M448 512a64 64 0 1 1 128 0 64 64 0 0 1-128 0z"></path><path fill="#22292f" d="M320 576a32 32 0 1 1 64 0 32 32 0 0 1-64 0zm320 0a32 32 0 1 1 64 0 32 32 0 0 1-64 0z"></path><path fill="#22292f" d="M608 384a32 32 0 0 1 64 0v192a32 32 0 0 1-64 0V384zm-256 0a32 32 0 0 1 64 0v192a32 32 0 0 1-64 0V384z"></path><path fill="#22292f" d="M672 576a32 32 0 0 1 64 0v96a32 32 0 1 1-64 0v-96zm-320 0a32 32 0 0 1 64 0v96a32 32 0 1 1-64 0v-96z"></path><path fill="#22292f" d="M480 704a32 32 0 0 1 64 0v96a32 32 0 0 1-64 0v-96z"></path></g></svg>